<?xml version="1.0" standalone="no"?>
<!DOCTYPE svg PUBLIC "-//W3C//DTD SVG 20010904//EN"
 "http://www.w3.org/TR/2001/REC-SVG-20010904/DTD/svg10.dtd">
<svg version="1.0" xmlns="http://www.w3.org/2000/svg"
 width="512.000000pt" height="512.000000pt" viewBox="0 0 512.000000 512.000000"
 preserveAspectRatio="xMidYMid meet">

<g transform="translate(0.000000,512.000000) scale(0.100000,-0.100000)"
fill="#000000" stroke="none">
<path d="M3302 4861 c-384 -192 -526 -267 -545 -290 -34 -41 -47 -89 -47 -178
l0 -73 -540 0 c-527 0 -540 0 -560 -20 -27 -27 -27 -83 2 -110 21 -20 32 -20
560 -20 l538 0 0 -117 c0 -121 16 -374 26 -405 5 -17 -30 -18 -639 -18 l-644
0 -21 -23 c-29 -31 -29 -80 0 -107 21 -20 31 -20 679 -20 l657 0 32 -92 c17
-51 34 -99 37 -105 3 -10 -145 -13 -690 -15 -667 -3 -696 -4 -716 -22 -27 -25
-28 -79 -1 -106 20 -20 33 -20 755 -20 l734 0 44 -67 c24 -38 59 -86 77 -108
l32 -40 -452 -5 c-432 -5 -452 -6 -466 -24 -23 -33 -18 -82 12 -105 26 -21 36
-21 541 -21 l514 0 72 -63 c119 -103 308 -238 472 -338 50 -30 137 -33 178 -6
l27 17 0 -910 0 -910 -980 0 -980 0 0 85 c0 72 -3 88 -20 105 -27 27 -81 26
-106 -1 -17 -19 -19 -44 -24 -298 l-5 -276 -784 -3 c-571 -1 -787 1 -797 9
-12 9 -14 108 -14 553 0 297 4 547 8 554 7 10 173 12 798 10 l789 -3 5 -136
c4 -116 8 -140 24 -158 25 -27 79 -28 106 -1 18 18 20 33 20 170 l0 150 620 0
621 0 24 25 c32 31 32 69 0 100 l-24 25 -741 0 -740 0 0 105 0 105 746 2 746
3 19 24 c25 30 24 62 -2 95 l-20 26 -745 0 -744 0 -5 28 c-8 37 -33 142 -41
170 l-6 22 404 0 c380 0 406 1 421 18 24 27 22 85 -4 108 -20 18 -45 19 -467
22 l-445 3 -83 78 c-92 88 -203 150 -314 176 -139 32 -348 12 -459 -45 l-41
-20 0 900 0 900 296 0 c343 0 353 2 354 77 0 20 -8 40 -22 53 -21 19 -33 20
-352 20 -314 0 -333 -1 -364 -20 -65 -40 -62 9 -62 -1063 l0 -974 -21 -19
c-31 -28 -103 -131 -133 -192 -54 -106 -66 -184 -66 -414 l0 -208 -52 0 c-100
-1 -165 -49 -188 -141 -7 -30 -10 -218 -8 -599 3 -626 1 -605 81 -658 l41 -27
805 -3 c443 -2 821 0 839 3 40 7 101 59 118 102 9 21 14 75 14 158 l0 125
1021 2 1021 3 34 37 34 38 0 993 0 994 69 46 c174 116 404 327 512 470 155
208 252 451 290 727 14 105 19 766 7 812 -19 66 -46 82 -580 349 -414 207
-527 259 -558 259 -31 0 -144 -52 -558 -259z m1058 -136 c432 -216 490 -248
496 -271 4 -15 4 -176 1 -358 -7 -434 -30 -570 -133 -795 -83 -182 -257 -391
-457 -552 -94 -76 -391 -279 -407 -279 -16 0 -318 207 -410 282 -198 159 -354
345 -440 522 -122 253 -154 454 -148 946 l3 255 490 247 c270 136 496 247 503
247 6 1 232 -109 502 -244z m-3155 -2440 c172 -45 317 -178 383 -353 24 -63
26 -81 30 -284 l4 -218 -75 0 -75 0 -4 208 -3 208 -38 76 c-43 88 -107 152
-195 195 -52 26 -67 28 -167 28 -104 0 -114 -2 -176 -32 -80 -40 -159 -120
-197 -200 -26 -56 -27 -64 -30 -270 l-3 -213 -75 0 -74 0 0 204 c0 190 2 211
25 283 72 228 282 383 520 383 50 0 117 -7 150 -15z m-27 -311 c29 -14 65 -42
82 -62 51 -62 60 -106 60 -304 l0 -178 -255 0 -255 0 0 192 c0 171 2 196 20
233 63 129 219 183 348 119z"/>
<path d="M3755 4594 c-292 -47 -525 -242 -622 -519 -26 -74 -28 -91 -28 -235
0 -144 2 -161 28 -235 43 -121 99 -209 196 -305 151 -149 311 -214 526 -214
95 0 137 5 200 23 171 48 333 166 429 310 109 163 114 261 14 261 -42 0 -53
-11 -100 -110 -134 -275 -459 -406 -749 -300 -243 88 -399 311 -399 570 0 105
18 182 67 280 102 204 346 343 574 326 265 -19 473 -188 549 -446 27 -91 42
-110 87 -110 75 0 90 60 47 188 -77 233 -279 426 -514 492 -74 20 -242 34
-305 24z"/>
<path d="M3984 3909 l-164 -163 -98 97 c-82 82 -102 97 -129 97 -22 0 -38 -8
-52 -26 -40 -51 -32 -68 112 -211 119 -119 136 -133 167 -133 31 0 52 17 227
193 179 178 193 195 193 228 0 40 -20 64 -63 74 -26 7 -40 -4 -193 -156z"/>
<path d="M1430 2880 c-30 -30 -27 -83 6 -109 25 -20 39 -21 259 -21 220 0 234
1 259 21 33 26 36 79 6 109 -19 19 -33 20 -265 20 -232 0 -246 -1 -265 -20z"/>
<path d="M1436 2519 c-34 -27 -36 -79 -4 -109 22 -20 30 -20 920 -20 l899 0
24 25 c32 31 32 69 0 100 l-24 25 -894 0 c-890 0 -894 0 -921 -21z"/>
<path d="M2740 2173 c-33 -12 -50 -37 -50 -73 0 -69 3 -70 302 -70 264 0 265
0 286 23 39 41 25 97 -29 116 -33 11 -480 15 -509 4z"/>
</g>
</svg>
