<?xml version="1.0" standalone="no"?>
<!DOCTYPE svg PUBLIC "-//W3C//DTD SVG 20010904//EN"
 "http://www.w3.org/TR/2001/REC-SVG-20010904/DTD/svg10.dtd">
<svg version="1.0" xmlns="http://www.w3.org/2000/svg"
 width="512.000000pt" height="512.000000pt" viewBox="0 0 512.000000 512.000000"
 preserveAspectRatio="xMidYMid meet">

<g transform="translate(0.000000,512.000000) scale(0.100000,-0.100000)"
fill="#000000" stroke="none">
<path d="M2475 4984 c-396 -41 -721 -318 -822 -702 -35 -132 -37 -316 -5 -445
45 -182 125 -323 256 -452 304 -301 766 -358 1135 -140 92 54 235 187 290 268
58 85 111 204 138 304 35 134 37 316 4 448 -26 108 -101 268 -165 352 -164
216 -424 353 -697 366 -52 3 -112 3 -134 1z m210 -169 c286 -50 520 -249 610
-518 56 -170 55 -332 -4 -503 -41 -121 -84 -187 -186 -289 -100 -100 -169
-145 -286 -187 -217 -76 -455 -53 -654 64 -85 50 -227 190 -274 270 -81 139
-122 332 -103 482 24 185 96 332 226 462 93 92 186 151 300 189 133 45 238 53
371 30z"/>
<path d="M2669 4146 l-213 -174 -59 81 c-32 45 -68 90 -79 100 -31 26 -82 22
-107 -9 -36 -46 -28 -70 70 -204 118 -162 115 -160 158 -160 33 0 63 22 281
201 135 110 251 207 258 216 20 27 15 77 -11 101 -49 46 -68 36 -298 -152z"/>
<path d="M772 3353 c-32 -28 -772 -1319 -772 -1346 0 -14 8 -34 18 -45 15 -18
561 -338 604 -355 27 -10 75 12 95 43 l18 28 160 -93 160 -94 -4 -65 c-2 -44
3 -85 15 -123 35 -112 167 -213 279 -213 31 0 32 -2 38 -49 18 -151 151 -281
287 -281 l37 0 7 -52 c10 -77 41 -139 94 -191 63 -62 129 -90 216 -92 l70 -1
13 -40 c18 -54 65 -108 121 -142 42 -24 57 -27 137 -27 85 0 92 -2 133 -32 50
-36 128 -56 187 -47 91 13 181 87 210 170 l13 39 79 6 c96 7 138 24 202 84 54
51 89 120 98 194 l5 48 53 6 c137 14 258 135 272 272 l6 53 51 6 c114 15 227
104 262 208 22 68 16 187 -14 245 l-22 42 68 39 c239 138 330 190 349 201 21
10 25 6 62 -58 42 -71 80 -98 119 -84 43 17 589 337 605 355 9 11 17 31 17 45
0 27 -740 1318 -772 1346 -11 9 -31 17 -45 17 -26 0 -609 -331 -630 -358 -22
-28 -14 -75 23 -136 19 -32 31 -62 27 -66 -13 -12 -131 -50 -155 -50 -12 0
-179 52 -372 117 -419 139 -417 139 -556 73 l-91 -44 -107 54 c-99 50 -112 54
-179 54 -69 1 -76 -1 -215 -72 l-143 -72 -242 0 -243 0 20 33 c22 36 26 84 7
107 -14 19 -53 42 -369 224 -130 75 -248 136 -261 136 -14 0 -34 -8 -45 -17z
m311 -308 c104 -59 186 -113 184 -119 -13 -33 -647 -1121 -655 -1124 -13 -4
-417 233 -415 244 1 9 608 1063 640 1112 13 21 16 22 36 9 12 -7 107 -62 210
-122z m3522 -440 c174 -302 317 -554 318 -559 2 -11 -402 -248 -415 -244 -11
4 -650 1107 -652 1126 0 7 91 66 204 131 154 90 208 116 216 108 6 -7 154
-259 329 -562z m-2285 239 c22 -9 40 -19 40 -23 0 -4 -63 -38 -141 -76 -144
-72 -197 -112 -229 -175 -9 -19 -43 -127 -74 -239 -63 -223 -65 -246 -20 -313
35 -54 82 -73 220 -91 195 -26 212 -17 330 173 54 88 94 141 110 149 26 12
143 14 181 3 12 -4 122 -81 244 -172 122 -91 227 -169 233 -173 7 -5 3 -14
-14 -25 -85 -59 -134 -133 -151 -230 l-11 -59 -51 -6 c-140 -17 -254 -132
-273 -276 -5 -37 -11 -51 -22 -51 -9 0 -44 -7 -79 -16 l-63 -16 -31 27 c-51
42 -109 67 -171 72 l-58 6 0 38 c0 135 -119 264 -268 290 l-60 11 -6 49 c-15
108 -82 201 -181 249 -40 19 -66 24 -130 24 -123 0 -151 -16 -341 -206 -89
-88 -166 -158 -171 -156 -4 3 -77 45 -161 94 -109 63 -152 93 -149 104 3 8
117 209 254 445 l249 430 314 5 315 5 144 73 c79 39 152 72 162 72 10 0 37 -7
59 -16z m825 -121 c324 -108 356 -117 425 -117 59 1 93 7 159 32 47 18 85 31
87 29 9 -11 436 -757 436 -763 0 -4 -105 -68 -233 -141 l-233 -134 -105 105
c-78 77 -203 177 -474 379 -202 150 -384 279 -405 286 -20 7 -83 15 -140 18
-173 9 -226 -24 -343 -218 -40 -66 -75 -121 -78 -123 -11 -6 -203 22 -211 31
-9 8 78 335 104 391 14 28 48 48 303 175 247 123 330 162 353 166 2 1 162 -52
355 -116z m-1442 -897 c43 -17 85 -68 93 -111 13 -72 1 -91 -175 -268 -91 -93
-178 -175 -193 -183 -59 -31 -150 -8 -189 48 -24 33 -35 94 -24 135 8 34 326
359 370 379 39 17 78 17 118 0z m1714 -76 c32 -13 337 -311 359 -352 21 -40
18 -117 -6 -156 -22 -35 -88 -72 -130 -72 -54 0 -107 40 -256 191 -83 85 -157
165 -164 177 -27 53 -9 143 37 184 40 36 106 48 160 28z m-1365 -266 c58 -29
87 -98 73 -171 -5 -31 -35 -66 -168 -201 -89 -90 -174 -170 -189 -178 -40 -21
-117 -18 -156 6 -57 35 -86 123 -61 187 11 29 308 336 344 355 50 28 103 29
157 2z m1035 -69 c45 -19 335 -304 358 -351 45 -95 -13 -208 -114 -221 -72
-10 -98 8 -278 190 -182 184 -194 203 -173 276 15 53 38 81 83 102 51 23 77
24 124 4z m-699 -265 c46 -28 72 -76 71 -130 0 -25 -4 -53 -8 -63 -3 -10 -83
-94 -176 -188 -187 -187 -208 -200 -287 -179 -53 15 -93 55 -108 108 -21 79
-8 100 182 288 95 95 180 174 188 177 36 13 106 6 138 -13z m367 -69 c24 -11
103 -83 202 -182 135 -137 162 -170 168 -202 31 -165 -160 -253 -278 -129 -25
26 -26 31 -16 67 32 115 -47 261 -164 303 l-48 17 3 65 c3 59 5 65 28 71 41
12 63 9 105 -10z m-140 -295 c19 -8 41 -28 50 -46 31 -60 18 -83 -133 -233
-129 -127 -141 -137 -176 -137 -30 0 -45 7 -73 35 -32 32 -35 39 -30 77 5 37
19 55 129 166 107 108 160 150 191 152 4 0 23 -6 42 -14z m135 -388 c0 -56
-44 -103 -98 -103 -22 0 -47 7 -56 14 -16 13 -11 21 55 87 65 66 74 71 85 56
8 -9 14 -34 14 -54z"/>
</g>
</svg>
