<?xml version="1.0" standalone="no"?>
<!DOCTYPE svg PUBLIC "-//W3C//DTD SVG 20010904//EN"
 "http://www.w3.org/TR/2001/REC-SVG-20010904/DTD/svg10.dtd">
<svg version="1.0" xmlns="http://www.w3.org/2000/svg"
 width="512.000000pt" height="512.000000pt" viewBox="0 0 512.000000 512.000000"
 preserveAspectRatio="xMidYMid meet">

<g transform="translate(0.000000,512.000000) scale(0.100000,-0.100000)"
fill="#000000" stroke="none">
<path d="M3965 4884 c-16 -9 -59 -35 -95 -58 l-64 -41 -108 3 c-164 5 -216
-25 -285 -163 -42 -84 -57 -101 -105 -126 -36 -18 -82 -19 -1360 -19 -827 0
-1349 -4 -1393 -10 -93 -14 -161 -48 -224 -115 -62 -66 -87 -118 -101 -211 -6
-43 -10 -619 -10 -1545 l0 -1475 -60 -12 c-74 -13 -112 -39 -139 -95 -19 -40
-21 -61 -21 -259 0 -188 3 -224 20 -279 36 -114 112 -194 229 -241 l56 -23
2255 0 2255 0 56 23 c117 47 193 127 229 241 17 55 20 91 20 279 0 198 -2 219
-21 259 -29 60 -70 86 -141 91 l-58 4 0 1059 0 1058 29 20 c54 39 71 93 71
222 l0 115 50 79 c93 148 93 207 -4 352 l-46 68 0 117 c0 64 -5 129 -11 145
-17 46 -69 92 -149 133 -89 45 -108 64 -149 151 -36 78 -93 133 -151 149 -22
6 -85 10 -139 8 -98 -3 -98 -3 -152 33 -97 64 -134 79 -196 79 -32 -1 -71 -8
-88 -16z m185 -180 c95 -63 143 -76 257 -68 70 5 97 4 109 -7 9 -7 33 -48 55
-90 47 -94 88 -138 166 -175 118 -56 113 -49 113 -183 0 -129 6 -148 89 -278
39 -61 38 -76 -15 -153 -66 -95 -74 -123 -74 -251 0 -134 5 -126 -107 -184
-86 -44 -130 -90 -178 -184 -19 -39 -44 -75 -54 -81 -11 -5 -68 -10 -128 -10
-121 0 -142 -7 -253 -79 -76 -49 -85 -49 -172 10 -92 63 -114 69 -242 69 -132
0 -128 -2 -181 99 -45 86 -100 139 -197 191 -43 23 -79 47 -80 53 -1 7 -2 64
-2 127 -1 126 -7 144 -82 253 -19 27 -34 61 -34 75 0 14 22 60 49 101 63 97
75 143 67 249 -9 106 -1 119 102 171 93 47 130 84 175 176 52 104 53 105 188
102 124 -2 144 4 259 82 61 42 89 40 170 -15z m-1047 -456 l-2 -73 -262 -3
c-227 -2 -265 -5 -281 -19 -26 -23 -24 -85 3 -109 19 -17 42 -19 259 -22 l238
-3 -35 -67 c-30 -58 -34 -74 -31 -124 2 -32 2 -58 2 -58 -1 0 -27 11 -58 25
-122 54 -208 70 -376 70 -130 0 -169 -4 -240 -23 -170 -46 -323 -134 -445
-257 -373 -372 -379 -967 -16 -1348 268 -280 651 -376 1014 -253 143 49 244
113 363 231 116 114 186 221 234 352 32 90 60 228 60 299 0 43 1 43 26 34 14
-6 76 -10 138 -10 l112 0 79 -50 c79 -50 128 -70 172 -70 37 0 114 34 177 78
57 40 63 42 133 42 l73 0 0 -890 0 -890 -695 0 c-749 0 -723 2 -771 -52 -37
-40 -45 -67 -52 -171 l-7 -102 -355 0 -355 0 -7 102 c-7 104 -15 131 -52 171
-48 54 -22 52 -771 52 l-695 0 0 1455 0 1455 804 2 c774 3 805 4 825 22 26 23
28 81 4 108 -15 17 -55 18 -852 18 -812 0 -837 -1 -868 -20 -18 -10 -40 -34
-50 -52 -17 -31 -18 -110 -21 -1510 l-2 -1478 -70 0 -70 0 0 1525 c0 1482 1
1527 19 1563 22 42 62 82 106 105 27 15 164 16 1315 17 l1285 0 -2 -72z m-293
-567 c99 -33 207 -91 265 -142 32 -28 34 -33 28 -78 -7 -65 12 -140 47 -183
17 -20 64 -54 109 -77 71 -37 81 -46 91 -79 52 -184 31 -411 -51 -574 -34 -68
-99 -168 -108 -168 -3 0 -14 20 -24 45 -43 104 -138 220 -232 285 l-44 30 22
48 c20 42 22 63 22 212 0 160 -1 167 -27 221 -38 76 -109 146 -188 183 -58 28
-75 31 -160 31 -85 0 -102 -3 -160 -31 -79 -37 -150 -107 -188 -183 -26 -54
-27 -61 -27 -221 0 -149 2 -170 22 -212 l22 -48 -44 -30 c-94 -65 -189 -181
-232 -285 -10 -25 -21 -45 -24 -45 -9 0 -74 100 -108 168 -70 139 -98 341 -68
498 55 289 254 525 527 624 113 42 165 49 310 46 109 -3 137 -7 220 -35z
m-162 -407 c49 -20 100 -70 123 -119 15 -32 19 -64 19 -160 0 -115 -1 -122
-30 -172 -22 -39 -44 -61 -83 -83 -112 -64 -253 -28 -317 83 -28 50 -30 57
-30 170 0 132 11 171 63 226 64 67 171 90 255 55z m2092 -1154 l0 -1010 -70 0
-70 0 0 906 0 906 29 28 c16 16 46 63 67 105 22 41 40 75 42 75 1 0 2 -454 2
-1010z m-2180 445 c98 0 110 2 168 31 l62 31 48 -33 c101 -68 200 -207 217
-305 7 -35 5 -38 -40 -69 -132 -91 -278 -134 -455 -134 -177 0 -323 43 -455
134 -45 31 -47 34 -40 69 17 98 116 237 217 305 l48 33 62 -31 c58 -29 70 -31
168 -31z m-516 -1627 c3 -13 7 -63 8 -113 3 -106 24 -145 92 -176 38 -17 72
-19 416 -19 344 0 378 2 416 19 68 31 89 70 92 176 1 50 5 100 8 113 l4 22
943 -2 942 -3 3 -206 2 -206 -28 -54 c-36 -69 -88 -106 -167 -119 -82 -13
-4348 -13 -4430 0 -79 13 -131 50 -167 119 -28 53 -28 54 -28 255 0 112 3 206
7 209 3 4 428 7 944 7 l939 0 4 -22z"/>
<path d="M4165 3930 l-310 -310 -95 95 c-52 52 -109 102 -126 110 -55 26 -104
-7 -104 -71 0 -21 23 -51 103 -132 159 -163 202 -186 275 -148 15 8 172 160
350 338 349 351 349 351 297 403 -51 52 -53 51 -390 -285z"/>
<path d="M1605 1741 c-70 -43 -94 -98 -95 -221 0 -101 12 -148 47 -190 53 -63
63 -65 336 -65 l249 0 24 28 c29 34 30 56 3 91 l-20 26 -228 0 c-168 0 -232 3
-245 13 -14 10 -16 26 -14 97 l3 85 895 0 895 0 3 -85 c2 -71 0 -87 -14 -97
-14 -10 -129 -13 -516 -13 -485 0 -499 -1 -518 -20 -43 -43 -14 -113 52 -125
18 -3 254 -5 523 -3 541 3 522 1 578 68 35 41 47 89 47 185 0 96 -12 144 -47
185 -53 64 7 60 -1005 60 -881 0 -924 -1 -953 -19z"/>
</g>
</svg>
